<?xml version="1.0"?>
<svg xmlns="http://www.w3.org/2000/svg" viewBox="0 0 64 64" width="512" height="512"><g id="security"><path d="M36,22H28v8h8Zm-2,3H33v4H31V25H30V23h4Z"/><circle cx="50" cy="13" r="1"/><path d="M9.52,54H54.48a1,1,0,0,0,.994-1.084l-.553-6.631A2.976,2.976,0,0,1,53,47H11a2.97,2.97,0,0,1-1.921-.715l-.553,6.628A1,1,0,0,0,9.52,54ZM30,51h4v2H30Z"/><path d="M58.154,36.913A1,1,0,0,0,57.16,36H56v3.385a2.866,2.866,0,0,1,.468,1.377l1,11.985A3,3,0,0,1,54.48,56H9.52a3,3,0,0,1-2.986-3.256l1-12A2.826,2.826,0,0,1,8,39.385V36H6.84a.994.994,0,0,0-.993.907L4.176,56.913A1,1,0,0,0,5.17,58H58.83a1,1,0,0,0,.994-1.085Z"/><path d="M35,19a3,3,0,0,0-6,0v1h6Z"/><circle cx="14" cy="13" r="1"/><path d="M11,45H53a1,1,0,0,0,1-1V10a1,1,0,0,0-1-1H11a1,1,0,0,0-1,1V44A1,1,0,0,0,11,45Zm3-7H12V36h2Zm8-15v2H14V23Zm-7-2V19h8v2Zm8,6v2H17V27Zm-9-6H12V19h2Zm0,6h2v2H14ZM24,43H22V41h2Zm18,0H40V41h2Zm10-5H50V36h2ZM42,25V23h8v2Zm5,2v2H41V27Zm-6-6V19h8v2Zm7,6h2v2H48Zm4-6H50V19h2ZM40,16h2V13a1,1,0,0,1,1-1h4.184a3,3,0,1,1,0,2H44v3a1,1,0,0,1-1,1H40ZM39,31h8a1,1,0,0,1,1,1v4h1v2H47a1,1,0,0,1-1-1V33H39Zm0,12H25V41H39ZM26,21a1,1,0,0,1,1-1V19a5,5,0,1,1,10,0v1a1,1,0,0,1,1,1V31a1,1,0,0,1-1,1H27a1,1,0,0,1-1-1ZM25,33H18v4a1,1,0,0,1-1,1H15V36h1V32a1,1,0,0,1,1-1h8ZM14,10a3,3,0,0,1,2.816,2H21a1,1,0,0,1,1,1v3h2v2H21a1,1,0,0,1-1-1V14H16.816A2.995,2.995,0,1,1,14,10Z"/></g></svg>
